<svg xmlns="http://www.w3.org/2000/svg" width="900" height="360" viewBox="0 0 900 360">
  <rect width="900" height="360" fill="#f8fbf8"/>
  <rect x="260" y="50" width="380" height="230" rx="18" fill="#ffffff" stroke="#34a853" stroke-width="4"/>
  <rect x="290" y="85" width="320" height="28" rx="6" fill="#e8f5e9"/>
  <rect x="290" y="125" width="70" height="30" fill="#d9ead3"/>
  <rect x="360" y="125" width="80" height="30" fill="#d9ead3"/>
  <rect x="440" y="125" width="80" height="30" fill="#d9ead3"/>
  <rect x="520" y="125" width="90" height="30" fill="#d9ead3"/>
  <g fill="#ffffff" stroke="#b7d7b8">
    <rect x="290" y="155" width="70" height="30"/>
    <rect x="360" y="155" width="80" height="30"/>
    <rect x="440" y="155" width="80" height="30"/>
    <rect x="520" y="155" width="90" height="30"/>
    <rect x="290" y="185" width="70" height="30"/>
    <rect x="360" y="185" width="80" height="30"/>
    <rect x="440" y="185" width="80" height="30"/>
    <rect x="520" y="185" width="90" height="30"/>
    <rect x="290" y="215" width="70" height="30"/>
    <rect x="360" y="215" width="80" height="30"/>
    <rect x="440" y="215" width="80" height="30"/>
    <rect x="520" y="215" width="90" height="30"/>
  </g>
  <circle cx="150" cy="100" r="38" fill="#cfe8d1" stroke="#34a853" stroke-width="3"/>
  <circle cx="150" cy="180" r="38" fill="#d9e8fb" stroke="#4285f4" stroke-width="3"/>
  <circle cx="750" cy="140" r="38" fill="#fce8b2" stroke="#fbbc04" stroke-width="3"/>
  <circle cx="750" cy="220" r="38" fill="#f4cccc" stroke="#ea4335" stroke-width="3"/>
  <path d="M188 100 L260 100" stroke="#34a853" stroke-width="4" marker-end="url(#arrow)"/>
  <path d="M188 180 L260 180" stroke="#4285f4" stroke-width="4" marker-end="url(#arrow)"/>
  <path d="M640 140 L712 140" stroke="#fbbc04" stroke-width="4" marker-end="url(#arrow)"/>
  <path d="M640 220 L712 220" stroke="#ea4335" stroke-width="4" marker-end="url(#arrow)"/>
  <text x="450" y="72" font-family="Arial, sans-serif" font-size="24" text-anchor="middle" fill="#1f1f1f">Google Sheets</text>
  <text x="150" y="105" font-family="Arial, sans-serif" font-size="16" text-anchor="middle" fill="#1f1f1f">Student A</text>
  <text x="150" y="185" font-family="Arial, sans-serif" font-size="16" text-anchor="middle" fill="#1f1f1f">Student B</text>
  <text x="750" y="145" font-family="Arial, sans-serif" font-size="16" text-anchor="middle" fill="#1f1f1f">Comment</text>
  <text x="750" y="225" font-family="Arial, sans-serif" font-size="16" text-anchor="middle" fill="#1f1f1f">Share</text>
  <text x="450" y="320" font-family="Arial, sans-serif" font-size="18" text-anchor="middle" fill="#4b4b4b">Cloud editing, auto-save, version history, and collaboration</text>
  <defs>
    <marker id="arrow" markerWidth="10" markerHeight="10" refX="8" refY="3" orient="auto">
      <polygon points="0 0, 10 3, 0 6" fill="#5f6368"/>
    </marker>
  </defs>
</svg>