<svg xmlns="http://www.w3.org/2000/svg" width="900" height="360" viewBox="0 0 900 360">
  <rect width="900" height="360" fill="#f8fafc"/>
  <text x="450" y="38" font-family="Arial, sans-serif" font-size="28" text-anchor="middle" fill="#1f2937">PivotTable Field Layout</text>
  <rect x="70" y="80" width="330" height="220" rx="16" fill="#ffffff" stroke="#cbd5e1" stroke-width="3"/>
  <rect x="460" y="80" width="370" height="220" rx="16" fill="#ffffff" stroke="#cbd5e1" stroke-width="3"/>
  <text x="235" y="110" font-family="Arial, sans-serif" font-size="22" text-anchor="middle" fill="#334155">Source Data</text>
  <text x="645" y="110" font-family="Arial, sans-serif" font-size="22" text-anchor="middle" fill="#334155">PivotTable</text>
  <g font-family="Arial, sans-serif" font-size="15">
    <rect x="95" y="130" width="70" height="28" fill="#dbeafe"/><rect x="165" y="130" width="90" height="28" fill="#dbeafe"/><rect x="255" y="130" width="70" height="28" fill="#dbeafe"/><rect x="325" y="130" width="50" height="28" fill="#dbeafe"/>
    <text x="130" y="149" text-anchor="middle">Region</text><text x="210" y="149" text-anchor="middle">Product</text><text x="290" y="149" text-anchor="middle">Month</text><text x="350" y="149" text-anchor="middle">Sales</text>
    <rect x="95" y="158" width="70" height="28" fill="#fff" stroke="#cbd5e1"/><rect x="165" y="158" width="90" height="28" fill="#fff" stroke="#cbd5e1"/><rect x="255" y="158" width="70" height="28" fill="#fff" stroke="#cbd5e1"/><rect x="325" y="158" width="50" height="28" fill="#fff" stroke="#cbd5e1"/>
    <rect x="95" y="186" width="70" height="28" fill="#fff" stroke="#cbd5e1"/><rect x="165" y="186" width="90" height="28" fill="#fff" stroke="#cbd5e1"/><rect x="255" y="186" width="70" height="28" fill="#fff" stroke="#cbd5e1"/><rect x="325" y="186" width="50" height="28" fill="#fff" stroke="#cbd5e1"/>
    <rect x="95" y="214" width="70" height="28" fill="#fff" stroke="#cbd5e1"/><rect x="165" y="214" width="90" height="28" fill="#fff" stroke="#cbd5e1"/><rect x="255" y="214" width="70" height="28" fill="#fff" stroke="#cbd5e1"/><rect x="325" y="214" width="50" height="28" fill="#fff" stroke="#cbd5e1"/>
  </g>
  <rect x="505" y="130" width="120" height="34" rx="8" fill="#d1fae5"/><text x="565" y="152" font-family="Arial, sans-serif" font-size="16" text-anchor="middle">Rows: Region</text>
  <rect x="650" y="130" width="120" height="34" rx="8" fill="#dbeafe"/><text x="710" y="152" font-family="Arial, sans-serif" font-size="16" text-anchor="middle">Columns: Month</text>
  <rect x="505" y="180" width="120" height="34" rx="8" fill="#fee2e2"/><text x="565" y="202" font-family="Arial, sans-serif" font-size="16" text-anchor="middle">Values: Sales</text>
  <rect x="650" y="180" width="120" height="34" rx="8" fill="#fef3c7"/><text x="710" y="202" font-family="Arial, sans-serif" font-size="16" text-anchor="middle">Filter: Product</text>
  <path d="M400 185 L470 185" stroke="#64748b" stroke-width="4" marker-end="url(#arrow3)"/>
  <defs><marker id="arrow3" markerWidth="10" markerHeight="10" refX="8" refY="3" orient="auto"><polygon points="0 0, 10 3, 0 6" fill="#64748b"/></marker></defs>
</svg>